<svg width="31" height="22" viewBox="0 0 31 22" fill="none" xmlns="http://www.w3.org/2000/svg">
<path d="M27.5981 3.52103H24.8169V4.6947H27.3841V17.6051H3.42292V4.6947H5.99019V3.52103H3.20898C3.00893 3.52332 2.81151 3.55261 2.62797 3.60724C2.44444 3.66186 2.2784 3.74074 2.13933 3.83938C2.00026 3.93802 1.89089 4.05447 1.81747 4.1821C1.74404 4.30973 1.708 4.44602 1.7114 4.5832V17.7166C1.708 17.8538 1.74404 17.9901 1.81747 18.1177C1.89089 18.2454 2.00026 18.3618 2.13933 18.4604C2.2784 18.5591 2.44444 18.638 2.62797 18.6926C2.81151 18.7472 3.00893 18.7765 3.20898 18.7788H27.5981C27.7981 18.7765 27.9955 18.7472 28.1791 18.6926C28.3626 18.638 28.5286 18.5591 28.6677 18.4604C28.8068 18.3618 28.9161 18.2454 28.9896 18.1177C29.063 17.9901 29.099 17.8538 29.0956 17.7166V4.5832C29.099 4.44602 29.063 4.30973 28.9896 4.1821C28.9161 4.05447 28.8068 3.93802 28.6677 3.83938C28.5286 3.74074 28.3626 3.66186 28.1791 3.60724C27.9955 3.55261 27.7981 3.52332 27.5981 3.52103Z" fill="#999999"/>
<path d="M6.84595 8.21573H8.55746V9.3894H6.84595V8.21573Z" fill="#999999"/>
<path d="M11.9807 8.21573H13.6922V9.3894H11.9807V8.21573Z" fill="#999999"/>
<path d="M17.1152 8.21573H18.8267V9.3894H17.1152V8.21573Z" fill="#999999"/>
<path d="M22.2498 8.21573H23.9613V9.3894H22.2498V8.21573Z" fill="#999999"/>
<path d="M6.84595 11.1499H8.55746V12.3236H6.84595V11.1499Z" fill="#999999"/>
<path d="M11.9807 11.1499H13.6922V12.3236H11.9807V11.1499Z" fill="#999999"/>
<path d="M17.1152 11.1499H18.8267V12.3236H17.1152V11.1499Z" fill="#999999"/>
<path d="M22.2498 11.1499H23.9613V12.3236H22.2498V11.1499Z" fill="#999999"/>
<path d="M6.84595 14.0841H8.55746V15.2578H6.84595V14.0841Z" fill="#999999"/>
<path d="M11.9807 14.0841H13.6922V15.2578H11.9807V14.0841Z" fill="#999999"/>
<path d="M17.1152 14.0841H18.8267V15.2578H17.1152V14.0841Z" fill="#999999"/>
<path d="M22.2498 14.0841H23.9613V15.2578H22.2498V14.0841Z" fill="#999999"/>
<path d="M8.55766 5.86837C8.78462 5.86837 9.00229 5.80655 9.16277 5.69649C9.32326 5.58644 9.41342 5.43718 9.41342 5.28154V1.76051C9.41342 1.60487 9.32326 1.45561 9.16277 1.34556C9.00229 1.2355 8.78462 1.17368 8.55766 1.17368C8.3307 1.17368 8.11304 1.2355 7.95255 1.34556C7.79206 1.45561 7.7019 1.60487 7.7019 1.76051V5.28154C7.7019 5.43718 7.79206 5.58644 7.95255 5.69649C8.11304 5.80655 8.3307 5.86837 8.55766 5.86837Z" fill="#999999"/>
<path d="M22.2498 5.86837C22.4768 5.86837 22.6944 5.80655 22.8549 5.69649C23.0154 5.58644 23.1056 5.43718 23.1056 5.28154V1.76051C23.1056 1.60487 23.0154 1.45561 22.8549 1.34556C22.6944 1.2355 22.4768 1.17368 22.2498 1.17368C22.0228 1.17368 21.8052 1.2355 21.6447 1.34556C21.4842 1.45561 21.394 1.60487 21.394 1.76051V5.28154C21.394 5.43718 21.4842 5.58644 21.6447 5.69649C21.8052 5.80655 22.0228 5.86837 22.2498 5.86837Z" fill="#999999"/>
<path d="M11.1248 3.52103H19.6823V4.6947H11.1248V3.52103Z" fill="#999999"/>
</svg>
